<svg xmlns="http://www.w3.org/2000/svg"><defs><style>.icon-base{fill:#afc0a0;stroke:none;stroke-width:1.6;stroke-linejoin:round}.icon-detail{fill:none;stroke:#c5d3b9;stroke-width:1.6;stroke-linecap:round;stroke-linejoin:round}.icon-accent{fill:#d8ae68}.icon-cut{fill:#142825}</style><symbol id="map" viewBox="0 0 24 24"><path class="icon-base" d="M3 4h6v6H3zm12 0h6v6h-6zM3 15h6v6H3z"/><path class="icon-detail" d="M12 3v9H3m9 0h9m-9 0v9"/><path class="icon-accent" d="M17 14h3l2 3-4 5-4-5z"/><path class="icon-cut" d="M17 16h2v2h-2z"/></symbol><symbol id="gear" viewBox="0 0 24 24"><path class="icon-base" d="M2 9h5l3-3h9v3h3v3h-9l-2 4H8l-2 5H3l3-9H2z"/><path class="icon-detail" d="M10 4h6v2m-2 7h5v5h-3l-2-5"/><path class="icon-accent" d="M11 8h8v2h-8z"/></symbol><symbol id="garage" viewBox="0 0 24 24"><path class="icon-base" d="M3 11l3-6h12l3 6v7H3zM5 18h3v3H5zm11 0h3v3h-3z"/><path class="icon-cut" d="M7 7h10l2 4H5z"/><path class="icon-accent" d="M5 13h3v2H5zm11 0h3v2h-3z"/><path class="icon-detail" d="M10 14h4"/></symbol><symbol id="daily" viewBox="0 0 24 24"><path class="icon-base" d="M5 4h14v17H5z"/><path class="icon-detail" d="M9 2h6v4H9"/><path class="icon-cut" d="M8 9h8v1.5H8zm0 4h5v1.5H8z"/><path class="icon-accent" d="M14 16l3 3 5-6 1 2-6 7-4-4z"/></symbol><symbol id="raids" viewBox="0 0 24 24"><path class="icon-base" d="M6 4l6-2 6 2 3 7-2 6-4 2v3H9v-3l-4-2-2-6z"/><path class="icon-cut" d="M6 8h12v7H6z"/><path class="icon-accent" d="M7 10h3v3H7zm7 0h3v3h-3z"/><path class="icon-detail" d="M10 18h4m-3 2v2m2-2v2"/></symbol><symbol id="guide" viewBox="0 0 24 24"><path class="icon-base" d="M3 4h7l2 2 2-2h7v16h-7l-2 2-2-2H3z"/><path class="icon-cut" d="M11 6h2v14h-2zM5 8h4v1.5H5zm0 4h4v1.5H5z"/><path class="icon-accent" d="M16 4h3v10l-1.5-2-1.5 2z"/></symbol><symbol id="leaderboard" viewBox="0 0 24 24"><path class="icon-base" d="M7 3h10v8l-3 5h-4l-3-5zM10 17h4v3h4v2H6v-2h4z"/><path class="icon-detail" d="M7 5H3v4l4 3m10-7h4v4l-4 3"/><path class="icon-accent" d="M11 6h2v5h-2z"/></symbol><symbol id="friends" viewBox="0 0 24 24"><path class="icon-base" d="M5 3h4l2 2v4l-2 2H5L3 9V5zm10 0h4l2 2v4l-2 2h-4l-2-2V5zM2 16l5-3 5 3v6H2zm12 0 3-3 5 3v6h-8z"/><path class="icon-accent" d="M10 15h4v3h-4z"/></symbol><symbol id="clans" viewBox="0 0 24 24"><path class="icon-base" d="M4 3h16v11l-8 8-8-8z"/><path class="icon-cut" d="M7 6h10v7l-5 5-5-5z"/><path class="icon-accent" d="M9 7h6v3h-6zm-1 5h3v3H8zm5 0h3v3h-3z"/></symbol><symbol id="conflict" viewBox="0 0 24 24"><path class="icon-base" d="M3 2l4 1 14 17-3 2L3 7zM21 2l-4 1-6 7 3 4 7-7zM8 14l4 4-6 4-3-2z"/><path class="icon-accent" d="M2 17l5 5 2-2-5-5zM16 4l4 5 2-2-4-5z"/></symbol><symbol id="settings" viewBox="0 0 24 24"><path class="icon-base" d="M4 3h16v18H4z"/><path class="icon-cut" d="M7.25 6h1.5v12h-1.5zm8 0h1.5v12h-1.5z"/><path class="icon-accent" d="M6 9h4v3H6zm8 5h4v3h-4z"/></symbol><symbol id="medical" viewBox="0 0 24 24"><path class="icon-base" d="M3 7h18v13H3z"/><path class="icon-detail" d="M8 3h8v4"/><path class="icon-cut" d="M5 9h14v9H5z"/><path class="icon-accent" d="M10 9h4v3h3v3h-3v3h-4v-3H7v-3h3z"/></symbol><symbol id="energy" viewBox="0 0 24 24"><path class="icon-accent" d="M13 2L4 14h7l-1 8 10-12h-7z"/></symbol><symbol id="diamond" viewBox="0 0 24 24"><path class="icon-base" d="M7 3h10l5 7-10 12L2 10z"/><path class="icon-detail" d="M2 10h20M7 3l-1 7 6 12 6-12-1-7"/><path class="icon-accent" d="M11 6h2l2 4-3 7-3-7z"/></symbol><symbol id="skull" viewBox="0 0 24 24"><path class="icon-base" d="M6 4l6-2 6 2 3 6-2 7-4 2v3H9v-3l-4-2-2-7z"/><path class="icon-cut" d="M6 8h5v5H6zm7 0h5v5h-5z"/><path class="icon-accent" d="M12 13l2 3h-4z"/><path class="icon-detail" d="M10 20v2m4-2v2"/></symbol><symbol id="star" viewBox="0 0 24 24"><path class="icon-accent" d="M12 2l3 6 7 1-5 5 1 8-6-4-6 4 1-8-5-5 7-1z"/><path class="icon-cut" d="M12 7l1.5 4 4 .5-3 3 .5 4-3-2-3 2 .5-4-3-3 4-.5z"/></symbol><symbol id="menu" viewBox="0 0 24 24"><path class="icon-detail" d="M3 5h18M3 12h12M3 19h18"/><path class="icon-accent" d="M18 10h3v4h-3z"/></symbol><symbol id="close" viewBox="0 0 24 24"><path class="icon-detail" d="M5 5l14 14M19 5L5 19"/></symbol><symbol id="pause" viewBox="0 0 24 24"><path class="icon-accent" d="M5 3h5v18H5zm9 0h5v18h-5z"/></symbol><symbol id="repulse" viewBox="0 0 24 24"><path class="icon-base" d="M12 2l8 4v8l-8 8-8-8V6z"/><path class="icon-accent" d="M11 6h2v5h4l-5 6-5-6h4z"/></symbol><symbol id="run" viewBox="0 0 24 24"><path class="icon-base" d="M14 2h4v4h-4zM11 8l5-1 3 6-3 1-2-4-2 5-4-1z"/><path class="icon-detail" d="M11 15l5 3-2 4m-3-7-4 6H3M9 9l-4 3H2"/><path class="icon-accent" d="M19 10h3v2h-3z"/></symbol><symbol id="arrow" viewBox="0 0 24 24"><path class="icon-detail" d="M4 12h16M14 6l6 6-6 6"/></symbol><symbol id="refresh" viewBox="0 0 24 24"><path class="icon-detail" d="M20 10a8 8 0 1 0-2 8M20 3v7h-7"/><path class="icon-accent" d="M19 15h3v3h-3z"/></symbol></defs></svg>